<svg width="12" height="23" viewBox="0 0 12 23" fill="none" xmlns="http://www.w3.org/2000/svg">
<path d="M5.33197 21.8679C5.73597 22.2199 6.29 22.264 6.677 21.877L9.39301 19.1609C9.77101 18.7829 9.75297 18.1939 9.38397 17.8159L8.09198 16.5239L10.008 14.6079C10.377 14.2389 10.377 13.6419 9.99902 13.2639L8.25 11.5059C10.632 10.3189 11.968 8.34194 11.968 6.01294C11.968 2.71694 9.305 0.0539551 6 0.0539551C2.687 0.0539551 0.0319824 2.70794 0.0319824 6.01294C0.0319824 8.37694 1.377 10.4949 3.521 11.4619V19.7059C3.521 20.0219 3.61799 20.3829 3.89099 20.6199L5.33197 21.8679ZM6 20.304L5.05103 19.3539V10.3019C3.04703 9.86194 1.61401 8.10394 1.61401 6.01294C1.61401 3.59594 3.565 1.64496 6 1.64496C8.435 1.64496 10.377 3.59594 10.377 6.01294C10.377 8.08694 8.93598 9.87094 6.73798 10.3539V12.262L8.42603 13.9489L6.62402 15.7159V17.3069L7.81097 18.476L6 20.304ZM6 6.06494C6.861 6.06494 7.56403 5.36192 7.56403 4.50092C7.56403 3.63992 6.861 2.93695 6 2.93695C5.13 2.93695 4.43597 3.63092 4.43597 4.50092C4.43597 5.36192 5.139 6.06494 6 6.06494Z" fill="#5E6477"/>
</svg>
