<svg width="28" height="19" viewBox="0 0 28 19" fill="none" xmlns="http://www.w3.org/2000/svg">
<path d="M10.227 16.2659C11.5 15.9219 12.531 15.3669 13.312 14.6479C13.992 16.4219 15.523 17.6799 17.766 18.2889C21.703 19.3359 24.703 17.5079 25.805 13.3979L27.281 7.90594C27.695 6.35894 27.094 5.32794 25.508 4.90594L17.742 2.81994C16.156 2.39794 15.148 2.97693 14.711 4.54693L14.266 6.19494L13.281 2.51592C12.859 0.960921 11.828 0.382923 10.25 0.804923L2.477 2.87493C0.890997 3.29693 0.305002 4.30493 0.719002 5.88293L2.18 11.3829C3.273 15.4919 6.281 17.3119 10.227 16.2659ZM9.83601 14.7889C6.80501 15.5859 4.52301 14.1799 3.66401 10.9919L2.21101 5.54693C2.03901 4.91393 2.258 4.52292 2.883 4.34392L10.625 2.26592C11.258 2.10192 11.656 2.33594 11.82 2.98394L13.273 8.42193C14.133 11.6249 12.859 13.9769 9.83601 14.7889ZM18.148 16.8119C16.039 16.2339 14.766 14.8909 14.523 13.0079C15.023 11.9609 15.195 10.7109 15.016 9.31994L16.172 4.99993C16.344 4.35893 16.734 4.13293 17.367 4.29693L25.102 6.36693C25.734 6.53893 25.953 6.93693 25.781 7.58593L24.32 13.0229C23.469 16.2269 21.188 17.6169 18.148 16.8119ZM10.211 7.06994C10.766 6.92194 11.031 7.17993 11.266 7.13293C11.438 7.07793 11.508 6.86693 11.43 6.58593C11.266 5.90593 10.531 5.49194 9.852 5.68694C9.148 5.85894 8.71901 6.58593 8.91401 7.24993C9.00001 7.53893 9.16401 7.69494 9.33601 7.64794C9.57001 7.58594 9.66401 7.21894 10.211 7.06994ZM5.64802 8.30492C6.20302 8.16392 6.46901 8.42194 6.70301 8.35894C6.87501 8.31994 6.94501 8.10893 6.86701 7.82793C6.70301 7.14093 5.96901 6.72693 5.28901 6.92193C4.58601 7.10193 4.164 7.81993 4.352 8.49193C4.445 8.78093 4.60202 8.92992 4.77302 8.89092C5.00802 8.81992 5.10202 8.45292 5.64802 8.30492ZM17.586 9.91393C18.156 10.0779 18.75 9.73394 18.914 9.14794C19.062 8.56994 18.719 7.97694 18.133 7.81194C17.562 7.65594 16.969 8.00793 16.805 8.58593C16.656 9.17193 17 9.75793 17.586 9.91393ZM22.109 11.1249C22.688 11.2729 23.281 10.9299 23.445 10.3519C23.594 9.76592 23.25 9.17994 22.664 9.02294C22.094 8.85894 21.5 9.20293 21.344 9.78893C21.18 10.3669 21.531 10.9689 22.109 11.1249ZM9.41401 13.2189C11.039 12.7659 12.078 11.5389 12.133 10.0159C12.148 9.61692 11.805 9.46894 11.469 9.73394C10.438 10.4609 9.32 10.7579 8.797 10.8979C8.266 11.0389 7.164 11.3439 5.883 11.2269C5.469 11.1719 5.24201 11.4769 5.45301 11.8049C6.27301 13.1019 7.78901 13.6329 9.41401 13.2189ZM18.859 14.0859C19.711 14.3049 20.414 14.7109 21.195 15.3979C21.5 15.6799 21.891 15.4999 21.867 15.1019C21.82 13.7419 20.82 12.6169 19.352 12.2339C17.883 11.8359 16.461 12.3199 15.734 13.4609C15.523 13.7889 15.773 14.1479 16.18 14.0619C17.164 13.8519 18.016 13.8519 18.859 14.0859Z" fill="#5E6477"/>
</svg>
