<svg width="16" height="19" viewBox="0 0 16 19" fill="none" xmlns="http://www.w3.org/2000/svg">
<path d="M7.99103 18.312C8.14903 18.312 8.38699 18.26 8.61499 18.137C13.669 15.386 15.427 14.111 15.427 10.912V4.276C15.427 3.222 15.022 2.844 14.135 2.466C13.168 2.053 9.88101 0.910022 8.93201 0.585022C8.63301 0.488022 8.29903 0.427002 7.99103 0.427002C7.69203 0.427002 7.35 0.506022 7.06 0.585022C6.11 0.857022 2.82302 2.062 1.85602 2.466C0.969018 2.835 0.564026 3.222 0.564026 4.276V10.912C0.564026 14.111 2.32198 15.368 7.37598 18.137C7.60398 18.26 7.84203 18.312 7.99103 18.312ZM7.99103 16.449C7.86803 16.449 7.74499 16.405 7.48999 16.247C3.48199 13.804 2.23401 13.145 2.23401 10.587V4.55798C2.23401 4.24098 2.29599 4.118 2.54199 4.013C3.84299 3.494 6.36502 2.65903 7.52502 2.20203C7.72802 2.13203 7.86803 2.10498 7.99103 2.10498C8.12303 2.10498 8.264 2.13203 8.466 2.20203C9.626 2.65903 12.131 3.547 13.44 4.013C13.695 4.109 13.757 4.24098 13.757 4.55798V10.587C13.757 13.162 12.456 13.856 8.50098 16.247C8.24598 16.405 8.12303 16.449 7.99103 16.449Z" fill="#5E6477"/>
</svg>
