<svg width="16" height="17" viewBox="0 0 16 17" fill="none" xmlns="http://www.w3.org/2000/svg">
<path d="M8 8.34796C10.127 8.34796 11.85 6.46697 11.85 4.16397C11.85 1.89597 10.127 0.0949707 8 0.0949707C5.882 0.0949707 4.14202 1.92298 4.15002 4.18198C4.15902 6.47598 5.873 8.34796 8 8.34796ZM8 6.80997C6.787 6.80997 5.75897 5.65798 5.75897 4.18198C5.74997 2.73998 6.778 1.63297 8 1.63297C9.23 1.63297 10.241 2.72297 10.241 4.16397C10.241 5.64097 9.222 6.80997 8 6.80997ZM2.51599 16.521H13.476C14.996 16.521 15.726 16.038 15.726 15.001C15.726 12.584 12.711 9.36697 8 9.36697C3.289 9.36697 0.265991 12.584 0.265991 15.001C0.265991 16.038 0.994991 16.521 2.51599 16.521ZM2.24298 14.983C2.03198 14.983 1.953 14.913 1.953 14.755C1.953 13.41 4.124 10.905 8 10.905C11.867 10.905 14.038 13.41 14.038 14.755C14.038 14.913 13.959 14.983 13.748 14.983H2.24298Z" fill="white"/>
</svg>
